<?xml version="1.0" encoding="utf-8"?>
<svg id="master-artboard" viewBox="0 0 1024 1024" version="1.1" xmlns="http://www.w3.org/2000/svg" x="0px" y="0px" style="enable-background:new 0 0 1024 1024;" width="1024px" height="1024px">

<path d="M 1.1 0.5 H 1025.1 V 1024.5 H 1.1 V 0.5 Z" class="st0" style="fill: rgb(255, 255, 255);"/>
<g transform="matrix(0.9999999999999999, 0, 0, 0.9999999999999999, -15.021176839850966, 1.251764655113206)">
	<path class="st1" d="M 251.9 384.9 C 227.4 384.9 207.5 404.79999999999995 207.5 429.29999999999995 L 207.5 429.29999999999995 L 207.5 504.79999999999995 L 207.5 540.3 L 207.5 615.8 L 207.5 615.8 C 207.5 640.3 227.4 660.1999999999999 251.9 660.1999999999999 C 276.4 660.1999999999999 296.3 640.3 296.3 615.8 L 296.3 615.8 L 296.3 540.3 L 296.3 504.79999999999995 L 296.3 429.29999999999995 L 296.3 429.29999999999995 C 296.3 404.8 276.4 384.9 251.9 384.9 Z" style="fill: rgb(0, 94, 184); stroke: rgb(255, 255, 255); stroke-width: 0;"/>
	<path class="st1" d="M 818.7 429.3 C 818.7 404.8 798.8000000000001 384.90000000000003 774.3000000000001 384.90000000000003 C 749.8000000000001 384.90000000000003 729.9000000000001 404.8 729.9000000000001 429.3 L 729.9000000000001 429.3 L 729.9000000000001 504.8 L 729.9000000000001 540.3 L 729.9000000000001 615.8 L 729.9000000000001 615.8 C 729.9000000000001 640.3 749.8000000000001 660.1999999999999 774.3000000000001 660.1999999999999 C 798.8000000000001 660.1999999999999 818.7 640.3 818.7 615.8 L 818.7 615.8 L 818.7 540.3 L 818.7 504.79999999999995 L 818.7 429.3 L 818.7 429.3 Z" style="fill: rgb(0, 94, 184); stroke: rgb(255, 255, 255); stroke-width: 0;"/>
	<path class="st1" d="M 313.1482299804687 393.9517395019531 L 312.2 392.7 L 312.2 685.4 C 312.2 709.8 332.2 729.8 356.59999999999997 729.8 L 394 729.8 L 394 756.3 L 394 831.8 L 394 831.8 C 394 856.3 413.9 876.1999999999999 438.4 876.1999999999999 C 462.9 876.1999999999999 482.79999999999995 856.3 482.79999999999995 831.8 L 482.79999999999995 831.8 L 482.79999999999995 756.3 L 482.79999999999995 729.8 L 543.4 729.8 L 543.4 756.3 L 543.4 831.8 C 543.4 856.3 563.3 876.1999999999999 587.8 876.1999999999999 C 612.3 876.1999999999999 632.1999999999999 856.3 632.1999999999999 831.8 L 632.1999999999999 756.3 L 632.1999999999999 729.8 L 669.5999999999999 729.8 C 693.9999999999999 729.8 713.9999999999999 709.8 713.9999999999999 685.4 L 713.9999999999999 392.7 L 713.2999999999998 392.7 L 313.1482299804687 393.9517395019531 Z" style="fill: rgb(0, 94, 184); stroke: rgb(255, 255, 255); stroke-width: 0;"/>
	<path class="st1" d="M 713.6 377.1 L 713.6 355.70000000000005 C 713 349.6 712.1 343.6 710.9 337.80000000000007 C 699.9 285.70000000000005 663.6 241.60000000000008 613.8 216.00000000000006 L 644.4 159.50000000000006 C 646.3 156.00000000000006 645 151.60000000000005 641.5 149.70000000000005 C 638 147.80000000000004 633.6 149.10000000000005 631.7 152.60000000000005 L 600.7 209.90000000000003 C 574.3000000000001 198.60000000000002 544.7 192.20000000000005 513.5 192.20000000000005 C 482 192.20000000000005 452.2 198.70000000000005 425.7 210.10000000000005 L 394.5 152.60000000000005 C 392.6 149.10000000000005 388.2 147.80000000000004 384.7 149.70000000000005 C 381.2 151.60000000000005 379.9 156.00000000000006 381.8 159.50000000000006 L 412.6 216.30000000000007 C 365.1 240.90000000000006 330 282.30000000000007 317.5 331.4000000000001 C 314.3 344.1000000000001 312.6 357.4000000000001 312.6 371.0000000000001 C 312.6 373.0000000000001 312.70000000000005 375.10000000000014 312.70000000000005 377.10000000000014 L 713.6 377.10000000000014 L 713.6 377.1 Z M 604.5 268.4 C 614.9 268.4 623.4 276.79999999999995 623.4 287.29999999999995 C 623.4 297.69999999999993 615 306.19999999999993 604.5 306.19999999999993 C 594.1 306.19999999999993 585.6 297.79999999999995 585.6 287.29999999999995 C 585.6 276.8 594.1 268.4 604.5 268.4 Z M 421.7 268.4 C 432.09999999999997 268.4 440.59999999999997 276.79999999999995 440.59999999999997 287.29999999999995 C 440.59999999999997 297.69999999999993 432.2 306.19999999999993 421.7 306.19999999999993 C 411.3 306.19999999999993 402.8 297.79999999999995 402.8 287.29999999999995 C 402.8 276.8 411.3 268.4 421.7 268.4 Z" style="fill: rgb(0, 94, 184); stroke: rgb(255, 255, 255); stroke-width: 0;"/>
</g>
<g transform="matrix(-0.017240313754700073, -4.539490969566405, 4.539490969566405, -0.017240313754700073, -333.6646217167158, 2136.7631488207153)"><g transform="matrix(1, 0, 0, 1, 0, 0)">
		<path class="st1" d="M313.7,140.5c4.3,0.3,8.2-1.8,12.3-0.4c2.2,0.8,4.6,6.2,6.1,8.6c5.4,8.4,12.5,18.4,17.2,25.8&#10;&#9;&#9;&#9;c8.2-11,15.2-23.3,23.3-34.4c4.1,0,8.2,0,12.3,0c-9.7,14.9-19.5,29.6-29.5,44.2c10.3,14.7,19.7,30.2,29.9,45&#10;&#9;&#9;&#9;c-3.7-0.2-7.7,1.7-11.5,0.4c-2-0.7-5-6.3-6.5-8.6c-5.8-8.7-12.8-19.3-17.6-27c-8.9,11.2-15.9,24.2-24.6,35.6c-4,0-7.9,0-11.9,0&#10;&#9;&#9;&#9;c9.9-15.1,19.6-30.3,29.9-45C333.5,169.8,323.7,155.1,313.7,140.5z" style="fill-rule: evenodd; clip-rule: evenodd; fill: rgb(254, 254, 254); opacity: 1;"/>
	</g></g></svg>