<?xml version="1.0" encoding="UTF-8" standalone="no"?>
<svg width="614px" height="729px" viewBox="0 0 614 729" version="1.1" xmlns="http://www.w3.org/2000/svg" xmlns:xlink="http://www.w3.org/1999/xlink" xmlns:sketch="http://www.bohemiancoding.com/sketch/ns">
    <!-- Generator: Sketch 3.4.2 (15855) - http://www.bohemiancoding.com/sketch -->
    <title>master-artboard</title>
    <desc>Created with Sketch.</desc>
    <defs></defs>
    <g id="Page-1" stroke="none" stroke-width="1" fill="none" fill-rule="evenodd" sketch:type="MSPage">
        <g id="logo" sketch:type="MSLayerGroup">
            <g id="master-artboard" sketch:type="MSShapeGroup">
                <g id="Group" transform="translate(0.978823, 0.251765)" stroke="#FFFFFF" fill="#005EB8">
                    <path d="M44.9,236.9 C20.4,236.9 0.5,256.8 0.5,281.3 L0.5,281.3 L0.5,356.8 L0.5,392.3 L0.5,467.8 L0.5,467.8 C0.5,492.3 20.4,512.2 44.9,512.2 C69.4,512.2 89.3,492.3 89.3,467.8 L89.3,467.8 L89.3,392.3 L89.3,356.8 L89.3,281.3 L89.3,281.3 C89.3,256.8 69.4,236.9 44.9,236.9 L44.9,236.9 Z" id="Shape"></path>
                    <path d="M611.7,281.3 C611.7,256.8 591.8,236.9 567.3,236.9 C542.8,236.9 522.9,256.8 522.9,281.3 L522.9,281.3 L522.9,356.8 L522.9,392.3 L522.9,467.8 L522.9,467.8 C522.9,492.3 542.8,512.2 567.3,512.2 C591.8,512.2 611.7,492.3 611.7,467.8 L611.7,467.8 L611.7,392.3 L611.7,356.8 L611.7,281.3 L611.7,281.3 L611.7,281.3 Z" id="Shape"></path>
                    <path d="M106.14823,245.95174 L105.2,244.7 L105.2,537.4 C105.2,561.8 125.2,581.8 149.6,581.8 L187,581.8 L187,608.3 L187,683.8 L187,683.8 C187,708.3 206.9,728.2 231.4,728.2 C255.9,728.2 275.8,708.3 275.8,683.8 L275.8,683.8 L275.8,608.3 L275.8,581.8 L336.4,581.8 L336.4,608.3 L336.4,683.8 C336.4,708.3 356.3,728.2 380.8,728.2 C405.3,728.2 425.2,708.3 425.2,683.8 L425.2,608.3 L425.2,581.8 L462.6,581.8 C487,581.8 507,561.8 507,537.4 L507,244.7 L506.3,244.7 L106.14823,245.95174 L106.14823,245.95174 Z" id="Shape"></path>
                    <path d="M506.6,229.1 L506.6,207.7 C506,201.6 505.1,195.6 503.9,189.8 C492.9,137.7 456.6,93.6 406.8,68 L437.4,11.5 C439.3,8 438,3.6 434.5,1.7 C431,-0.2 426.6,1.1 424.7,4.6 L393.7,61.9 C367.3,50.6 337.7,44.2 306.5,44.2 C275,44.2 245.2,50.7 218.7,62.1 L187.5,4.6 C185.6,1.1 181.2,-0.2 177.7,1.7 C174.2,3.6 172.9,8 174.8,11.5 L205.6,68.3 C158.1,92.9 123,134.3 110.5,183.4 C107.3,196.1 105.6,209.4 105.6,223 C105.6,225 105.7,227.1 105.7,229.1 L506.6,229.1 L506.6,229.1 L506.6,229.1 Z M397.5,120.4 C407.9,120.4 416.4,128.8 416.4,139.3 C416.4,149.7 408,158.2 397.5,158.2 C387.1,158.2 378.6,149.8 378.6,139.3 C378.6,128.8 387.1,120.4 397.5,120.4 L397.5,120.4 Z M214.7,120.4 C225.1,120.4 233.6,128.8 233.6,139.3 C233.6,149.7 225.2,158.2 214.7,158.2 C204.3,158.2 195.8,149.8 195.8,139.3 C195.8,128.8 204.3,120.4 214.7,120.4 L214.7,120.4 Z" id="Shape"></path>
                </g>
                <g id="Group" transform="translate(309.115718, 398.021597) rotate(269.782400) translate(-309.115718, -398.021597) translate(143.423103, 189.203506)" fill="#FEFEFE">
                    <g id="Shape">
                        <path d="M3.1776666,6.80928556 C22.6976185,8.17114267 40.401761,-1.36185711 59.0138082,4.99347608 C69.0007604,8.62509504 79.8956173,33.1385231 86.7049028,44.03338 C111.218331,82.1653791 143.448949,127.560616 164.784711,161.153092 C202.008805,111.218331 233.785471,55.3821892 270.555613,4.99347608 L326.391755,4.99347608 C282.358375,72.6323793 237.871042,139.363378 192.475805,205.640424 C239.232899,272.371422 281.904422,342.73404 328.207564,409.918991 C311.411326,409.011086 293.253232,417.636181 276.003041,411.7348 C266.923994,408.557134 253.305423,383.135801 246.496137,372.694896 C220.1669,333.20104 188.390234,285.082089 166.60052,250.127756 C126.198759,300.970422 94.4220931,359.98423 54.9282369,411.7348 L0.907904742,411.7348 C45.8491894,343.187992 89.8825694,274.187232 136.639664,207.456233 C93.060236,139.81733 48.5729037,73.0863317 3.1776666,6.80928556 L3.1776666,6.80928556 Z"></path>
                    </g>
                </g>
            </g>
        </g>
    </g>
</svg>