<?xml version="1.0" standalone="no"?>
<!DOCTYPE svg PUBLIC "-//W3C//DTD SVG 20010904//EN"
 "http://www.w3.org/TR/2001/REC-SVG-20010904/DTD/svg10.dtd">
<svg version="1.0" xmlns="http://www.w3.org/2000/svg"
 width="16.000000pt" height="16.000000pt" viewBox="0 0 16.000000 16.000000"
 preserveAspectRatio="xMidYMid meet">
<metadata>
Created by potrace 1.11, written by Peter Selinger 2001-2013
</metadata>
<g transform="translate(0.000000,16.000000) scale(0.002195,-0.002195)"
fill="#000000" stroke="none">
<path d="M2365 7280 c-27 -10 -44 -31 -49 -61 -3 -24 11 -53 161 -328 40 -74
73 -136 73 -138 0 -3 9 -18 21 -34 11 -16 18 -29 15 -29 -4 0 5 -18 19 -40
l25 -39 -73 -42 c-169 -98 -309 -208 -445 -348 -73 -76 -212 -252 -212 -268 0
-5 -8 -18 -18 -29 -10 -10 -38 -60 -63 -109 -24 -50 -48 -93 -54 -97 -5 -4 -6
-8 -1 -8 5 0 3 -7 -4 -15 -7 -8 -9 -15 -5 -15 4 0 3 -6 -2 -12 -10 -13 -40
-90 -48 -124 -3 -11 -14 -50 -24 -89 -10 -38 -22 -90 -25 -115 -3 -25 -8 -56
-11 -70 -10 -49 -17 -270 -8 -271 4 -1 910 -2 2011 -3 l2004 -2 -5 156 c-2 85
-7 166 -11 180 -3 14 -9 39 -12 55 -19 107 -68 253 -127 375 -130 271 -317
494 -567 678 -47 34 -90 66 -95 70 -6 5 -39 25 -75 45 -114 63 -109 52 -60
143 23 43 55 102 70 129 15 28 43 79 62 115 20 36 56 104 82 151 56 104 63
139 33 167 -12 12 -34 23 -48 26 -48 8 -59 -5 -166 -204 -98 -182 -117 -215
-125 -218 -4 -2 -6 -7 -3 -12 3 -4 -6 -23 -18 -41 -13 -19 -29 -48 -36 -66 -7
-17 -21 -39 -30 -47 -16 -15 -23 -14 -82 10 -70 29 -188 65 -295 90 -92 21
-84 20 -229 40 -136 19 -449 19 -550 0 -19 -3 -77 -13 -140 -22 -81 -12 -267
-66 -388 -111 -37 -15 -69 -24 -70 -22 -3 4 -50 90 -125 229 -19 36 -45 83
-57 105 -29 53 -76 138 -111 202 -19 36 -37 55 -57 63 -17 5 -30 10 -31 9 -1
0 -10 -4 -21 -9z m462 -1232 c117 -77 106 -249 -20 -312 -45 -23 -70 -25 -138
-13 -29 5 -69 37 -95 77 -35 53 -37 129 -5 186 51 90 172 119 258 62z m1805
16 c61 -32 96 -83 103 -151 11 -110 -83 -205 -194 -197 -87 6 -161 78 -166
161 -5 85 22 137 93 180 39 24 124 27 164 7z"/>
<path d="M918 4910 c-65 -18 -116 -41 -152 -69 -48 -38 -103 -101 -129 -149
-59 -109 -57 -74 -57 -1155 l1 -992 25 -75 c40 -117 119 -208 228 -259 70 -34
108 -43 186 -46 195 -5 376 125 437 313 17 54 18 117 18 1072 0 914 -2 1019
-17 1060 -85 234 -313 361 -540 300z"/>
<path d="M6208 4925 c-2 -2 -19 -5 -38 -8 -166 -24 -320 -175 -356 -349 -4
-18 -8 -483 -8 -1033 l-1 -1000 24 -65 c13 -36 34 -81 46 -101 54 -85 161
-163 260 -189 58 -15 174 -20 181 -8 3 5 10 6 15 2 16 -10 130 36 181 73 92
67 156 163 178 270 10 43 13 301 12 1028 0 534 -3 986 -6 1005 -23 122 -89
226 -190 298 -25 18 -46 30 -46 26 0 -3 -11 1 -23 9 -13 8 -42 20 -65 26 -39
11 -157 22 -164 16z"/>
<path d="M1629 4828 c0 -13 -1 -684 -1 -1493 0 -1054 3 -1484 11 -1518 12 -52
47 -131 71 -161 65 -84 176 -160 250 -172 8 -2 29 -6 45 -10 17 -3 122 -7 235
-8 l205 -1 1 -540 c1 -555 2 -573 42 -663 40 -90 141 -185 241 -228 85 -36
211 -39 306 -6 39 14 72 27 75 31 3 3 18 13 34 21 77 40 175 189 192 291 4 24
7 280 8 569 l1 525 295 0 295 0 2 -520 c2 -434 5 -562 16 -615 1 -3 16 -36 35
-74 57 -118 165 -205 295 -239 48 -13 155 -15 202 -4 46 11 132 50 165 75 50
38 110 103 110 119 0 7 4 13 8 13 11 0 39 60 53 113 8 28 12 227 14 582 2 297
4 542 4 545 1 3 97 6 214 6 132 1 229 6 257 14 56 15 140 52 140 62 0 5 5 8
11 8 7 0 37 26 67 57 58 62 98 136 117 218 8 36 11 465 10 1535 l0 1485 -1045
-2 c-575 -1 -1475 -3 -2000 -4 -525 -2 -961 0 -967 4 -9 6 -13 1 -14 -15z"/>
</g>
</svg>
