<?xml version="1.0" encoding="UTF-8" standalone="no"?>
<svg width="613px" height="729px" viewBox="0 0 613 729" version="1.1" xmlns="http://www.w3.org/2000/svg" xmlns:xlink="http://www.w3.org/1999/xlink" xmlns:sketch="http://www.bohemiancoding.com/sketch/ns">
    <!-- Generator: Sketch 3.4.2 (15855) - http://www.bohemiancoding.com/sketch -->
    <title>logo</title>
    <desc>Created with Sketch.</desc>
    <defs></defs>
    <g id="Page-1" stroke="none" stroke-width="1" fill="none" fill-rule="evenodd" sketch:type="MSPage">
        <g id="logo" sketch:type="MSLayerGroup">
            <g id="Page-1" sketch:type="MSShapeGroup">
                <g id="logo">
                    <g id="master-artboard">
                        <g id="Group" stroke="#FFFFFF" fill="#005EB8">
                            <g id="Shape">
                                <path d="M44.9,236.9 C20.4,236.9 0.5,256.8 0.5,281.3 L0.5,281.3 L0.5,356.8 L0.5,392.3 L0.5,467.8 L0.5,467.8 C0.5,492.3 20.4,512.2 44.9,512.2 C69.4,512.2 89.3,492.3 89.3,467.8 L89.3,467.8 L89.3,392.3 L89.3,356.8 L89.3,281.3 L89.3,281.3 C89.3,256.8 69.4,236.9 44.9,236.9 L44.9,236.9 L44.9,236.9 Z"></path>
                                <path d="M611.7,281.3 C611.7,256.8 591.8,236.9 567.3,236.9 C542.8,236.9 522.9,256.8 522.9,281.3 L522.9,281.3 L522.9,356.8 L522.9,392.3 L522.9,467.8 L522.9,467.8 C522.9,492.3 542.8,512.2 567.3,512.2 C591.8,512.2 611.7,492.3 611.7,467.8 L611.7,467.8 L611.7,392.3 L611.7,356.8 L611.7,281.3 L611.7,281.3 L611.7,281.3 L611.7,281.3 Z"></path>
                                <path d="M106.14823,245.95174 L105.2,244.7 L105.2,537.4 C105.2,561.8 125.2,581.8 149.6,581.8 L187,581.8 L187,608.3 L187,683.8 L187,683.8 C187,708.3 206.9,728.2 231.4,728.2 C255.9,728.2 275.8,708.3 275.8,683.8 L275.8,683.8 L275.8,608.3 L275.8,581.8 L336.4,581.8 L336.4,608.3 L336.4,683.8 C336.4,708.3 356.3,728.2 380.8,728.2 C405.3,728.2 425.2,708.3 425.2,683.8 L425.2,608.3 L425.2,581.8 L462.6,581.8 C487,581.8 507,561.8 507,537.4 L507,244.7 L506.3,244.7 L106.14823,245.95174 L106.14823,245.95174 L106.14823,245.95174 Z"></path>
                                <path d="M506.6,229.1 L506.6,207.7 C506,201.6 505.1,195.6 503.9,189.8 C492.9,137.7 456.6,93.6 406.8,68 L437.4,11.5 C439.3,8 438,3.6 434.5,1.7 C431,-0.2 426.6,1.1 424.7,4.6 L393.7,61.9 C367.3,50.6 337.7,44.2 306.5,44.2 C275,44.2 245.2,50.7 218.7,62.1 L187.5,4.6 C185.6,1.1 181.2,-0.2 177.7,1.7 C174.2,3.6 172.9,8 174.8,11.5 L205.6,68.3 C158.1,92.9 123,134.3 110.5,183.4 C107.3,196.1 105.6,209.4 105.6,223 C105.6,225 105.7,227.1 105.7,229.1 L506.6,229.1 L506.6,229.1 L506.6,229.1 L506.6,229.1 Z M397.5,120.4 C407.9,120.4 416.4,128.8 416.4,139.3 C416.4,149.7 408,158.2 397.5,158.2 C387.1,158.2 378.6,149.8 378.6,139.3 C378.6,128.8 387.1,120.4 397.5,120.4 L397.5,120.4 L397.5,120.4 Z M214.7,120.4 C225.1,120.4 233.6,128.8 233.6,139.3 C233.6,149.7 225.2,158.2 214.7,158.2 C204.3,158.2 195.8,149.8 195.8,139.3 C195.8,128.8 204.3,120.4 214.7,120.4 L214.7,120.4 L214.7,120.4 Z"></path>
                            </g>
                        </g>
                        <g id="Group" transform="translate(305.423449, 393.745571) rotate(269.782400) translate(-305.423449, -393.745571) translate(154.923449, 191.745571)" fill="#FCFAFE">
                            <g id="Shape" transform="translate(0.007836, 1.003558)">
                                <path d="M22.2217573,0.321243762 C28.6462566,0.321243762 49.5957111,0.689887636 49.9977417,0.689887762 C49.9977417,0.689887762 128.831261,121.93037 148.594568,155.049014 C183.12262,105.818598 212.865548,50.7700419 247.484457,1.09207677 L299.684174,1.09207677 C257.96391,67.7769129 216.241167,133.566651 174.094865,198.908839 C216.808693,264.698576 257.50986,336.686311 298.948662,402.923598 C283.72714,402.028499 248.046848,402.923609 248.046848,402.923609 C248.046848,402.923609 170.198376,277.229956 150.256985,242.768664 C113.306715,292.894179 84.536727,351.075579 48.9787302,402.096192 L-4.54108477e-12,402.096192 C40.1850439,334.516257 79.9631305,266.488774 122.675382,200.699036 C82.2127724,134.0142 122.67538,201.24012 -4.54108477e-12,1.63316553 C2.94638047,0.641752843 15.797258,0.321243762 22.2217573,0.321243762 Z"></path>
                            </g>
                        </g>
                    </g>
                </g>
            </g>
        </g>
    </g>
</svg>